<?xml version="1.0" encoding="UTF-8"?>
<!DOCTYPE svg PUBLIC "-//W3C//DTD SVG 1.1//EN" "http://www.w3.org/Graphics/SVG/1.1/DTD/svg11.dtd">
<svg xmlns="http://www.w3.org/2000/svg" version="1.1" width="1601px" height="270px" style="shape-rendering:geometricPrecision; text-rendering:geometricPrecision; image-rendering:optimizeQuality; fill-rule:evenodd; clip-rule:evenodd" xmlns:xlink="http://www.w3.org/1999/xlink">
<g><path style="opacity:0.906" fill="#fefefe" d="M 541.5,17.5 C 559.261,17.0714 576.594,19.5714 593.5,25C 609.303,31.6366 620.637,42.8033 627.5,58.5C 626.91,59.7989 625.91,60.6322 624.5,61C 618.728,63.0352 612.894,64.8686 607,66.5C 596.831,49.3847 581.664,39.8847 561.5,38C 530.723,33.8029 508.223,45.3029 494,72.5C 484.532,98.9374 485.532,124.937 497,150.5C 506.563,168.209 521.396,178.376 541.5,181C 562.371,183.602 582.037,179.935 600.5,170C 603.939,167.861 607.106,165.361 610,162.5C 610.667,152.167 610.667,141.833 610,131.5C 592.907,130.674 575.74,130.174 558.5,130C 557.359,124.25 557.193,118.416 558,112.5C 566.435,111.905 575.102,111.572 584,111.5C 600.083,111.631 616.083,112.298 632,113.5C 632.374,132.083 632.54,150.416 632.5,168.5C 631.902,169.795 631.402,171.128 631,172.5C 608.471,191.015 582.471,200.682 553,201.5C 519.514,201.931 493.848,188.264 476,160.5C 459.036,124.95 459.369,89.6162 477,54.5C 487.695,36.8245 503.195,25.6578 523.5,21C 529.581,19.5026 535.581,18.3359 541.5,17.5 Z"/></g>
<g><path style="opacity:0.907" fill="#fdfdfd" d="M 255.5,19.5 C 262.508,19.3337 269.508,19.5004 276.5,20C 277.931,20.4652 279.097,21.2986 280,22.5C 303.225,80.1749 326.058,138.008 348.5,196C 348.355,196.772 348.022,197.439 347.5,198C 340.253,198.812 333.086,198.646 326,197.5C 319.296,180.595 312.463,163.762 305.5,147C 278.5,146.333 251.5,146.333 224.5,147C 217.867,163.897 211.033,180.73 204,197.5C 196.333,198.833 188.667,198.833 181,197.5C 203.908,138.798 227.241,80.1317 251,21.5C 252.622,20.9011 254.122,20.2344 255.5,19.5 Z M 263.5,42.5 C 265.124,42.3601 266.29,43.0267 267,44.5C 277.07,71.5444 287.237,98.5444 297.5,125.5C 297.392,126.442 297.059,127.275 296.5,128C 275.26,128.826 254.094,128.66 233,127.5C 232.675,125.447 233.009,123.447 234,121.5C 244.725,95.4913 254.558,69.1579 263.5,42.5 Z"/></g>
<g><path style="opacity:0.901" fill="#fefefe" d="M 924.5,20.5 C 931.755,20.1868 938.921,20.5201 946,21.5C 946.333,73.8333 946.667,126.167 947,178.5C 976.43,179.499 1005.93,180.332 1035.5,181C 1036.83,186.667 1036.83,192.333 1035.5,198C 997.929,198.829 960.429,198.663 923,197.5C 923.126,138.444 923.626,79.4444 924.5,20.5 Z"/></g>
<g><path style="opacity:1" fill="#9342fd" d="M 1360.5,182.5 C 1363.07,169.324 1366.4,156.324 1370.5,143.5C 1370.46,142.584 1370.12,141.917 1369.5,141.5C 1369.5,140.833 1369.5,140.167 1369.5,139.5C 1370.75,139.423 1371.58,138.756 1372,137.5C 1378.03,114.382 1384.19,91.3819 1390.5,68.5C 1393.13,64.7346 1395.13,60.568 1396.5,56C 1396.16,52.5515 1397.49,49.5515 1400.5,47C 1399.69,46.6924 1399.03,46.1924 1398.5,45.5C 1400.61,39.3904 1401.94,33.057 1402.5,26.5C 1402.5,26.1667 1402.5,25.8333 1402.5,25.5C 1403.84,24.6851 1404.84,23.5185 1405.5,22C 1411.06,17.7802 1414.39,19.1136 1415.5,26C 1414.8,28.7071 1413.63,31.2071 1412,33.5C 1412.16,38.3843 1410.83,42.7176 1408,46.5C 1406.36,51.1517 1405.86,55.8183 1406.5,60.5C 1405.5,63 1404.5,65.5 1403.5,68C 1403.64,68.772 1403.98,69.4387 1404.5,70C 1401.97,76.4386 1399.8,82.9386 1398,89.5C 1397.59,95.5924 1395.92,101.259 1393,106.5C 1391.05,115.51 1389.21,124.51 1387.5,133.5C 1386.18,133.33 1385.01,133.663 1384,134.5C 1382.37,139.03 1381.37,143.696 1381,148.5C 1380.09,149.328 1379.42,150.328 1379,151.5C 1378.67,154.5 1378.33,157.5 1378,160.5C 1374.91,168.683 1372.41,177.016 1370.5,185.5C 1370.65,187.315 1370.81,189.315 1371,191.5C 1369.65,192.685 1368.48,194.019 1367.5,195.5C 1365.6,196.466 1363.6,196.799 1361.5,196.5C 1361.55,192.019 1361.22,187.352 1360.5,182.5 Z"/></g>
<g><path style="opacity:0.407" fill="#9664e4" d="M 1401.5,94.5 C 1400.9,94.2648 1400.57,93.7648 1400.5,93C 1407.85,68.0972 1414.52,42.9305 1420.5,17.5C 1420.29,16.0055 1419.62,14.8388 1418.5,14C 1408.88,11.7787 1403.55,15.612 1402.5,25.5C 1402.5,25.8333 1402.5,26.1667 1402.5,26.5C 1399.8,33.7648 1397.47,41.2648 1395.5,49C 1395.16,50.0299 1394.5,50.5299 1393.5,50.5C 1397.02,37.7474 1400.85,25.0808 1405,12.5C 1411,11.1667 1417,11.1667 1423,12.5C 1423.67,14.5 1423.67,16.5 1423,18.5C 1416.29,44.102 1409.13,69.4354 1401.5,94.5 Z"/></g>
<g><path style="opacity:0.556" fill="#8652d7" d="M 1443.5,55.5 C 1444.32,58.977 1444.82,62.6437 1445,66.5C 1447.41,68.0866 1449.57,69.7533 1451.5,71.5C 1442.75,69.2197 1440.08,63.8864 1443.5,55.5 Z"/></g>
<g><path style="opacity:1" fill="#8f46fd" d="M 1472.5,62.5 C 1492.62,73.6659 1513.45,83.9992 1535,93.5C 1537.18,92.8919 1539.18,93.5586 1541,95.5C 1541.33,95.1667 1541.67,94.8333 1542,94.5C 1543.49,96.0037 1545.32,96.8371 1547.5,97C 1546.01,98.1562 1546.17,98.9896 1548,99.5C 1561.75,104.508 1564.92,113.341 1557.5,126C 1555.89,126.72 1554.39,126.554 1553,125.5C 1552.44,127.595 1551.94,127.762 1551.5,126C 1551.91,125.055 1552.57,124.388 1553.5,124C 1552.21,123.51 1550.87,123.343 1549.5,123.5C 1549.41,119.682 1550.08,116.016 1551.5,112.5C 1550.17,109.664 1549.17,106.997 1548.5,104.5C 1547.91,104.291 1547.41,103.957 1547,103.5C 1544.58,107.133 1541.74,107.466 1538.5,104.5C 1538.71,103.914 1539.04,103.414 1539.5,103C 1537.56,102.257 1535.73,102.424 1534,103.5C 1530.99,101.532 1527.99,98.8658 1525,95.5C 1524.33,96.1667 1523.67,96.8333 1523,97.5C 1518.53,95.5596 1514.86,93.2262 1512,90.5C 1508.55,90.9472 1505.05,90.9472 1501.5,90.5C 1485.29,84.3979 1469.29,77.7313 1453.5,70.5C 1452.89,70.6236 1452.56,70.9569 1452.5,71.5C 1452.17,71.5 1451.83,71.5 1451.5,71.5C 1449.57,69.7533 1447.41,68.0866 1445,66.5C 1444.82,62.6437 1444.32,58.977 1443.5,55.5C 1443.5,54.5 1443.5,53.5 1443.5,52.5C 1445.45,51.6765 1447.45,51.5099 1449.5,52C 1457.57,55.0403 1465.23,58.5403 1472.5,62.5 Z"/></g>
<g><path style="opacity:1" fill="#8f41fd" d="M 139.5,73.5 C 135.466,75.7372 131.132,77.4039 126.5,78.5C 120.371,79.4874 114.371,80.9874 108.5,83C 107.833,84 107.167,85 106.5,86C 103.529,86.7943 100.529,87.461 97.5,88C 89.7277,91.2805 82.0611,94.9472 74.5,99C 65.5796,100.296 58.2462,104.462 52.5,111.5C 52.2407,113.989 53.2407,115.656 55.5,116.5C 55.5,116.833 55.5,117.167 55.5,117.5C 56.7927,119.296 58.2927,120.963 60,122.5C 60.3333,124.167 60.6667,125.833 61,127.5C 61.414,127.043 61.914,126.709 62.5,126.5C 64.8391,127.843 67.1724,129.176 69.5,130.5C 68.4231,131.705 67.0898,132.372 65.5,132.5C 64.8826,132.611 64.3826,132.944 64,133.5C 62.4263,132.016 61.093,130.349 60,128.5C 59.586,128.957 59.086,129.291 58.5,129.5C 52.149,127.712 46.8156,124.378 42.5,119.5C 37.6454,107.569 41.4787,101.236 54,100.5C 56.7914,98.7114 59.7914,97.3781 63,96.5C 63.3333,96.8333 63.6667,97.1667 64,97.5C 66.7034,95.0121 69.8701,93.1788 73.5,92C 73.1667,91.6667 72.8333,91.3333 72.5,91C 78.6939,88.6123 84.6939,86.6123 90.5,85C 92.3333,84.5 93.5,83.3333 94,81.5C 94.414,81.9574 94.914,82.2907 95.5,82.5C 104.929,78.4489 114.929,73.9489 125.5,69C 127.134,68.5065 128.801,68.3398 130.5,68.5C 130.5,67.5 130.5,66.5 130.5,65.5C 135.269,66.0196 139.269,64.1863 142.5,60C 144.899,59.2689 147.065,58.1022 149,56.5C 153.006,62.4538 151.506,66.4538 144.5,68.5C 142.53,69.9608 140.863,71.6275 139.5,73.5 Z"/></g>
<g><path style="opacity:0.898" fill="#fefefe" d="M 760.5,174.5 C 759.833,171.833 759.167,171.833 758.5,174.5C 755.203,177.736 752.37,181.403 750,185.5C 730.499,201.691 708.999,204.857 685.5,195C 678.666,190.158 674.166,183.658 672,175.5C 668.663,161.147 670.329,147.481 677,134.5C 684.631,125.232 694.464,119.732 706.5,118C 724.04,116.93 741.54,116.097 759,115.5C 760.204,106.876 759.204,98.5424 756,90.5C 751.561,84.0237 745.395,80.1904 737.5,79C 728.658,77.8744 719.992,78.5411 711.5,81C 704.283,84.421 699.95,90.0876 698.5,98C 690.916,98.2624 683.416,97.7624 676,96.5C 680.156,78.6802 691.323,67.8468 709.5,64C 729.062,59.4453 747.729,61.7786 765.5,71C 772.553,75.2623 777.053,81.429 779,89.5C 780.878,96.0282 781.878,102.695 782,109.5C 782.052,132.542 782.719,155.542 784,178.5C 785.046,180.09 786.213,181.59 787.5,183C 792.376,184.647 797.21,185.48 802,185.5C 802.439,189.211 802.106,192.878 801,196.5C 799.933,197.191 798.766,197.691 797.5,198C 787.385,199.571 777.718,198.238 768.5,194C 764.028,188.225 761.362,181.725 760.5,174.5 Z M 732.5,130.5 C 741.418,130.183 750.251,130.516 759,131.5C 761.539,154.262 752.706,170.762 732.5,181C 722.866,185.001 713.2,185.334 703.5,182C 694.733,175.386 691.233,166.552 693,155.5C 694.757,146.422 699.59,139.589 707.5,135C 715.86,132.831 724.194,131.331 732.5,130.5 Z"/></g>
<g><path style="opacity:0.894" fill="#fefefe" d="M 880.5,61.5 C 883.483,62.1453 886.317,62.4787 889,62.5C 890.756,68.8587 890.756,75.1921 889,81.5C 869.304,78.8529 856.971,87.1862 852,106.5C 850.116,116.405 849.116,126.405 849,136.5C 848.667,156.833 848.333,177.167 848,197.5C 841.248,198.645 834.414,198.811 827.5,198C 826.337,153.904 826.17,109.738 827,65.5C 833.667,64.1667 840.333,64.1667 847,65.5C 847.168,73.5207 847.668,81.5207 848.5,89.5C 851.267,84.7406 853.767,79.7406 856,74.5C 859.064,69.2108 863.564,65.7108 869.5,64C 873.312,63.2045 876.979,62.3712 880.5,61.5 Z"/></g>
<g><path style="opacity:0.906" fill="#fdfdfd" d="M 1116.5,61.5 C 1133.45,60.321 1149.12,64.1544 1163.5,73C 1174.75,83.7119 1181.25,96.8785 1183,112.5C 1183.67,124.5 1183.67,136.5 1183,148.5C 1181.19,166.96 1173.02,181.794 1158.5,193C 1140.82,200.542 1122.49,202.542 1103.5,199C 1087.01,194.515 1075.51,184.348 1069,168.5C 1059.33,140.27 1060.66,112.603 1073,85.5C 1080.22,74.2927 1090.39,67.126 1103.5,64C 1107.99,63.2398 1112.32,62.4065 1116.5,61.5 Z M 1122.5,77.5 C 1140.98,77.1566 1152.82,85.8233 1158,103.5C 1160.92,120.438 1161.25,137.438 1159,154.5C 1155.2,173.987 1143.36,183.987 1123.5,184.5C 1103.32,184.488 1091.48,174.488 1088,154.5C 1086,139.167 1086,123.833 1088,108.5C 1091.57,89.0829 1103.07,78.7496 1122.5,77.5 Z"/></g>
<g><path style="opacity:0.904" fill="#fdfdfd" d="M 1277.5,61.5 C 1291.58,60.4376 1304.58,63.6043 1316.5,71C 1326.53,82.2324 1332.36,95.3991 1334,110.5C 1336.8,131.96 1334.8,152.96 1328,173.5C 1320.17,191.467 1306.33,200.467 1286.5,200.5C 1274.96,200.782 1264.29,197.949 1254.5,192C 1250.41,188.584 1247.08,184.584 1244.5,180C 1243.36,179.251 1242.36,179.417 1241.5,180.5C 1242.83,203.696 1242.83,226.863 1241.5,250C 1234.83,250.667 1228.17,250.667 1221.5,250C 1220.77,247.876 1220.11,245.709 1219.5,243.5C 1220.83,186.5 1220.83,129.5 1219.5,72.5C 1220.12,69.9607 1220.78,67.4607 1221.5,65C 1227.83,64.3333 1234.17,64.3333 1240.5,65C 1241.48,71.0758 1241.81,77.2424 1241.5,83.5C 1244.71,82.836 1246.88,80.836 1248,77.5C 1255.94,68.4802 1265.77,63.1468 1277.5,61.5 Z M 1275.5,78.5 C 1294.97,78.1425 1306.47,87.4758 1310,106.5C 1312.93,124.532 1312.59,142.532 1309,160.5C 1301.75,181.546 1287.25,189.046 1265.5,183C 1252.62,177.446 1245.46,167.613 1244,153.5C 1242.08,139.843 1242.08,126.177 1244,112.5C 1245.87,92.8029 1256.37,81.4696 1275.5,78.5 Z"/></g>
<g><path style="opacity:0.333" fill="#8e5bde" d="M 1393.5,53.5 C 1394.04,53.56 1394.38,53.8933 1394.5,54.5C 1393.51,57.4501 1392.68,60.4501 1392,63.5C 1391.58,64.756 1390.75,65.4226 1389.5,65.5C 1390.47,61.2646 1391.8,57.2646 1393.5,53.5 Z"/></g>
<g><path style="opacity:1" fill="#914bf4" d="M 1402.5,26.5 C 1401.94,33.057 1400.61,39.3904 1398.5,45.5C 1399.03,46.1924 1399.69,46.6924 1400.5,47C 1397.49,49.5515 1396.16,52.5515 1396.5,56C 1395.13,60.568 1393.13,64.7346 1390.5,68.5C 1390.5,67.8333 1390.17,67.5 1389.5,67.5C 1389.5,66.8333 1389.5,66.1667 1389.5,65.5C 1390.75,65.4226 1391.58,64.756 1392,63.5C 1392.68,60.4501 1393.51,57.4501 1394.5,54.5C 1394.38,53.8933 1394.04,53.56 1393.5,53.5C 1393.5,52.5 1393.5,51.5 1393.5,50.5C 1394.5,50.5299 1395.16,50.0299 1395.5,49C 1397.47,41.2648 1399.8,33.7648 1402.5,26.5 Z"/></g>
<g><path style="opacity:1" fill="#954bfc" d="M 139.5,73.5 C 140.863,71.6275 142.53,69.9608 144.5,68.5C 151.506,66.4538 153.006,62.4538 149,56.5C 147.065,58.1022 144.899,59.2689 142.5,60C 139.269,64.1863 135.269,66.0196 130.5,65.5C 130.5,66.5 130.5,67.5 130.5,68.5C 128.801,68.3398 127.134,68.5065 125.5,69C 114.929,73.9489 104.929,78.4489 95.5,82.5C 94.914,82.2907 94.414,81.9574 94,81.5C 93.5,83.3333 92.3333,84.5 90.5,85C 84.6939,86.6123 78.6939,88.6123 72.5,91C 72.8333,91.3333 73.1667,91.6667 73.5,92C 69.8701,93.1788 66.7034,95.0121 64,97.5C 63.6667,97.1667 63.3333,96.8333 63,96.5C 59.7914,97.3781 56.7914,98.7114 54,100.5C 41.4787,101.236 37.6454,107.569 42.5,119.5C 46.8156,124.378 52.149,127.712 58.5,129.5C 59.086,129.291 59.586,128.957 60,128.5C 61.093,130.349 62.4263,132.016 64,133.5C 64.3826,132.944 64.8826,132.611 65.5,132.5C 65.0338,134.201 65.0338,135.701 65.5,137C 69.1267,137.564 72.2934,139.064 75,141.5C 75.3076,140.692 75.8076,140.025 76.5,139.5C 81.3325,141.538 85.9992,143.871 90.5,146.5C 91.086,146.291 91.586,145.957 92,145.5C 96.2478,147.556 100.414,149.89 104.5,152.5C 105.086,152.291 105.586,151.957 106,151.5C 109.733,154.186 113.4,156.186 117,157.5C 117.662,158.984 118.496,160.317 119.5,161.5C 92.8592,150.182 66.1925,138.848 39.5,127.5C 36.4354,120.558 35.2687,113.224 36,105.5C 36.2492,104.376 36.7492,103.376 37.5,102.5C 40.4686,101.193 43.1352,99.5265 45.5,97.5C 82.8015,81.8414 120.135,66.1747 157.5,50.5C 157.666,55.5111 157.499,60.5111 157,65.5C 151.455,68.8461 145.621,71.5128 139.5,73.5 Z"/></g>
<g><path style="opacity:0.443" fill="#8752d7" d="M 1501.5,90.5 C 1502.55,91.2223 1503.22,92.2223 1503.5,93.5C 1486.13,86.935 1469.13,79.6016 1452.5,71.5C 1452.56,70.9569 1452.89,70.6236 1453.5,70.5C 1469.29,77.7313 1485.29,84.3979 1501.5,90.5 Z"/></g>
<g><path style="opacity:0.22" fill="#8f60df" d="M 92.5,95.5 C 93.0312,93.3763 94.3645,91.8763 96.5,91C 102.533,89.999 107.866,87.6657 112.5,84C 116.167,83 119.833,82 123.5,81C 124.942,80.6232 125.942,79.7899 126.5,78.5C 131.132,77.4039 135.466,75.7372 139.5,73.5C 145.621,71.5128 151.455,68.8461 157,65.5C 157.499,60.5111 157.666,55.5111 157.5,50.5C 120.135,66.1747 82.8015,81.8414 45.5,97.5C 42.9499,98.3578 40.4499,99.3578 38,100.5C 37.6012,100.272 37.4346,99.9382 37.5,99.5C 76.9358,82.2906 116.602,65.2906 156.5,48.5C 157.442,48.6082 158.275,48.9415 159,49.5C 159.667,54.8333 159.667,60.1667 159,65.5C 158.167,66.3333 157.333,67.1667 156.5,68C 135.554,77.9703 114.221,87.1369 92.5,95.5 Z"/></g>
<g><path style="opacity:0.481" fill="#8d5ae0" d="M 1389.5,67.5 C 1390.17,67.5 1390.5,67.8333 1390.5,68.5C 1384.19,91.3819 1378.03,114.382 1372,137.5C 1371.58,138.756 1370.75,139.423 1369.5,139.5C 1375.88,115.296 1382.55,91.2964 1389.5,67.5 Z"/></g>
<g><path style="opacity:1" fill="#8f47f8" d="M 126.5,78.5 C 125.942,79.7899 124.942,80.6232 123.5,81C 119.833,82 116.167,83 112.5,84C 107.866,87.6657 102.533,89.999 96.5,91C 94.3645,91.8763 93.0312,93.3763 92.5,95.5C 92.1667,95.5 91.8333,95.5 91.5,95.5C 91.44,94.9569 91.1067,94.6236 90.5,94.5C 83.5288,97.4341 76.5288,100.267 69.5,103C 64.1447,105.34 59.1447,108.174 54.5,111.5C 53.8333,111.5 53.1667,111.5 52.5,111.5C 58.2462,104.462 65.5796,100.296 74.5,99C 82.0611,94.9472 89.7277,91.2805 97.5,88C 100.529,87.461 103.529,86.7943 106.5,86C 107.167,85 107.833,84 108.5,83C 114.371,80.9874 120.371,79.4874 126.5,78.5 Z"/></g>
<g><path style="opacity:0.333" fill="#8355d4" d="M 1543.5,117.5 C 1544.31,116.163 1545.48,115.163 1547,114.5C 1547.62,113.551 1547.45,112.718 1546.5,112C 1532.7,106.092 1519.04,100.258 1505.5,94.5C 1507.33,93.4176 1509.33,93.4176 1511.5,94.5C 1523.2,100.349 1535.2,105.682 1547.5,110.5C 1548.55,111.438 1549.22,112.605 1549.5,114C 1547.98,115.854 1546.14,117.354 1544,118.5C 1543.6,118.272 1543.43,117.938 1543.5,117.5 Z"/></g>
<g><path style="opacity:0.22" fill="#905de0" d="M 91.5,95.5 C 79.1547,100.957 66.8214,106.624 54.5,112.5C 54.5,112.167 54.5,111.833 54.5,111.5C 59.1447,108.174 64.1447,105.34 69.5,103C 76.5288,100.267 83.5288,97.4341 90.5,94.5C 91.1067,94.6236 91.44,94.9569 91.5,95.5 Z"/></g>
<g><path style="opacity:1" fill="#994dfc" d="M 1401.5,94.5 C 1401.5,95.5 1401.5,96.5 1401.5,97.5C 1400.62,97.3691 1399.96,97.7025 1399.5,98.5C 1390.25,131.748 1381.09,165.081 1372,198.5C 1371.23,199.849 1370.06,200.682 1368.5,201C 1364.25,201.796 1360.08,201.629 1356,200.5C 1355.33,198.833 1355.33,197.167 1356,195.5C 1357.32,190.968 1358.82,186.635 1360.5,182.5C 1361.22,187.352 1361.55,192.019 1361.5,196.5C 1363.6,196.799 1365.6,196.466 1367.5,195.5C 1368.48,194.019 1369.65,192.685 1371,191.5C 1370.81,189.315 1370.65,187.315 1370.5,185.5C 1372.41,177.016 1374.91,168.683 1378,160.5C 1378.33,157.5 1378.67,154.5 1379,151.5C 1379.42,150.328 1380.09,149.328 1381,148.5C 1381.37,143.696 1382.37,139.03 1384,134.5C 1385.01,133.663 1386.18,133.33 1387.5,133.5C 1389.21,124.51 1391.05,115.51 1393,106.5C 1395.92,101.259 1397.59,95.5924 1398,89.5C 1399.8,82.9386 1401.97,76.4386 1404.5,70C 1403.98,69.4387 1403.64,68.772 1403.5,68C 1404.5,65.5 1405.5,63 1406.5,60.5C 1405.86,55.8183 1406.36,51.1517 1408,46.5C 1410.83,42.7176 1412.16,38.3843 1412,33.5C 1413.63,31.2071 1414.8,28.7071 1415.5,26C 1414.39,19.1136 1411.06,17.7802 1405.5,22C 1404.84,23.5185 1403.84,24.6851 1402.5,25.5C 1403.55,15.612 1408.88,11.7787 1418.5,14C 1419.62,14.8388 1420.29,16.0055 1420.5,17.5C 1414.52,42.9305 1407.85,68.0972 1400.5,93C 1400.57,93.7648 1400.9,94.2648 1401.5,94.5 Z"/></g>
<g><path style="opacity:0.386" fill="#8e68dd" d="M 36.5,99.5 C 35.1832,102.453 34.1832,105.453 33.5,108.5C 32.3775,106.712 32.2109,104.712 33,102.5C 33.4224,100.574 34.5891,99.5743 36.5,99.5 Z"/></g>
<g><path style="opacity:1" fill="#9a58fa" d="M 1540.5,90.5 C 1548.93,93.7013 1557.26,97.2013 1565.5,101C 1566.13,101.75 1566.63,102.584 1567,103.5C 1567.67,110.5 1567.67,117.5 1567,124.5C 1563.01,127.556 1558.51,129.556 1553.5,130.5C 1556.23,128.746 1559.07,127.08 1562,125.5C 1563.94,119.567 1564.44,113.567 1563.5,107.5C 1559.72,103.625 1555.72,99.9579 1551.5,96.5C 1548.37,95.0692 1545.21,93.7358 1542,92.5C 1540.97,92.1639 1540.47,91.4972 1540.5,90.5 Z"/></g>
<g><path style="opacity:0.667" fill="#985df5" d="M 45.5,97.5 C 43.1352,99.5265 40.4686,101.193 37.5,102.5C 36.7492,103.376 36.2492,104.376 36,105.5C 35.2687,113.224 36.4354,120.558 39.5,127.5C 37.5168,126.529 35.5168,125.529 33.5,124.5C 33.5,119.167 33.5,113.833 33.5,108.5C 34.1832,105.453 35.1832,102.453 36.5,99.5C 36.8333,99.5 37.1667,99.5 37.5,99.5C 37.4346,99.9382 37.6012,100.272 38,100.5C 40.4499,99.3578 42.9499,98.3578 45.5,97.5 Z"/></g>
<g><path style="opacity:0.443" fill="#360b6e" d="M 52.5,111.5 C 53.1667,111.5 53.8333,111.5 54.5,111.5C 54.5,111.833 54.5,112.167 54.5,112.5C 54.5569,113.609 54.8902,114.609 55.5,115.5C 55.5,115.833 55.5,116.167 55.5,116.5C 53.2407,115.656 52.2407,113.989 52.5,111.5 Z"/></g>
<g><path style="opacity:1" fill="#934cfb" d="M 1472.5,62.5 C 1477.93,64.0999 1483.26,65.9333 1488.5,68C 1505.56,76.3667 1522.89,83.8667 1540.5,90.5C 1540.47,91.4972 1540.97,92.1639 1542,92.5C 1545.21,93.7358 1548.37,95.0692 1551.5,96.5C 1555.72,99.9579 1559.72,103.625 1563.5,107.5C 1564.44,113.567 1563.94,119.567 1562,125.5C 1559.07,127.08 1556.23,128.746 1553.5,130.5C 1539.76,136.859 1525.76,142.859 1511.5,148.5C 1511.28,147.325 1511.61,146.325 1512.5,145.5C 1514.26,144.872 1515.76,143.872 1517,142.5C 1517.33,142.833 1517.67,143.167 1518,143.5C 1525.91,139.795 1533.74,135.961 1541.5,132C 1542.91,130.209 1544.75,129.042 1547,128.5C 1547.69,127.668 1547.52,127.002 1546.5,126.5C 1542.57,128.519 1538.4,129.852 1534,130.5C 1533.59,130.043 1533.09,129.709 1532.5,129.5C 1528.52,131.734 1524.69,134.067 1521,136.5C 1520.67,136.167 1520.33,135.833 1520,135.5C 1514.55,137.87 1509.05,140.037 1503.5,142C 1493.02,147.293 1481.86,151.793 1470,155.5C 1469.67,155.167 1469.33,154.833 1469,154.5C 1464.5,156.889 1460,158.389 1455.5,159C 1447.56,161.119 1444.23,166.285 1445.5,174.5C 1446.83,174.5 1448.17,174.5 1449.5,174.5C 1447.84,176.654 1445.84,176.987 1443.5,175.5C 1443.5,173.5 1443.5,171.5 1443.5,169.5C 1444.21,167.107 1444.88,164.607 1445.5,162C 1456.57,156.468 1467.9,151.468 1479.5,147C 1481.54,146.502 1482.88,145.335 1483.5,143.5C 1483.83,143.5 1484.17,143.5 1484.5,143.5C 1484.43,143.938 1484.6,144.272 1485,144.5C 1490.92,142.123 1496.75,139.623 1502.5,137C 1504.54,136.502 1505.88,135.335 1506.5,133.5C 1506.83,133.5 1507.17,133.5 1507.5,133.5C 1507.43,133.938 1507.6,134.272 1508,134.5C 1510.76,133.204 1513.59,132.037 1516.5,131C 1518.54,130.502 1519.88,129.335 1520.5,127.5C 1520.83,127.5 1521.17,127.5 1521.5,127.5C 1528.28,126.149 1534.94,123.482 1541.5,119.5C 1542.3,119.043 1542.63,118.376 1542.5,117.5C 1542.83,117.5 1543.17,117.5 1543.5,117.5C 1543.43,117.938 1543.6,118.272 1544,118.5C 1546.14,117.354 1547.98,115.854 1549.5,114C 1549.22,112.605 1548.55,111.438 1547.5,110.5C 1535.2,105.682 1523.2,100.349 1511.5,94.5C 1509.33,93.4176 1507.33,93.4176 1505.5,94.5C 1504.83,94.1667 1504.17,93.8333 1503.5,93.5C 1503.22,92.2223 1502.55,91.2223 1501.5,90.5C 1505.05,90.9472 1508.55,90.9472 1512,90.5C 1514.86,93.2262 1518.53,95.5596 1523,97.5C 1523.67,96.8333 1524.33,96.1667 1525,95.5C 1527.99,98.8658 1530.99,101.532 1534,103.5C 1535.73,102.424 1537.56,102.257 1539.5,103C 1539.04,103.414 1538.71,103.914 1538.5,104.5C 1541.74,107.466 1544.58,107.133 1547,103.5C 1547.41,103.957 1547.91,104.291 1548.5,104.5C 1549.17,106.997 1550.17,109.664 1551.5,112.5C 1550.08,116.016 1549.41,119.682 1549.5,123.5C 1550.87,123.343 1552.21,123.51 1553.5,124C 1552.57,124.388 1551.91,125.055 1551.5,126C 1551.94,127.762 1552.44,127.595 1553,125.5C 1554.39,126.554 1555.89,126.72 1557.5,126C 1564.92,113.341 1561.75,104.508 1548,99.5C 1546.17,98.9896 1546.01,98.1562 1547.5,97C 1545.32,96.8371 1543.49,96.0037 1542,94.5C 1541.67,94.8333 1541.33,95.1667 1541,95.5C 1539.18,93.5586 1537.18,92.8919 1535,93.5C 1513.45,83.9992 1492.62,73.6659 1472.5,62.5 Z"/></g>
<g><path style="opacity:1" fill="#9048fd" d="M 55.5,117.5 C 60.5902,119.641 65.5902,121.974 70.5,124.5C 73.2385,127.485 76.4051,130.151 80,132.5C 86.1741,134.385 91.6741,136.885 96.5,140C 97.2217,142.787 98.7217,143.62 101,142.5C 110.227,145.414 119.56,148.748 129,152.5C 131.081,151.667 133.248,151.667 135.5,152.5C 136.492,152.672 137.158,152.338 137.5,151.5C 137.833,151.5 138.167,151.5 138.5,151.5C 138.414,152.496 138.748,153.329 139.5,154C 145.808,155.904 151.641,158.738 157,162.5C 157.499,166.486 157.666,170.486 157.5,174.5C 154.813,174.664 152.146,174.497 149.5,174C 139.517,169.73 129.517,165.563 119.5,161.5C 118.496,160.317 117.662,158.984 117,157.5C 113.4,156.186 109.733,154.186 106,151.5C 105.586,151.957 105.086,152.291 104.5,152.5C 100.414,149.89 96.2478,147.556 92,145.5C 91.586,145.957 91.086,146.291 90.5,146.5C 85.9992,143.871 81.3325,141.538 76.5,139.5C 75.8076,140.025 75.3076,140.692 75,141.5C 72.2934,139.064 69.1267,137.564 65.5,137C 65.0338,135.701 65.0338,134.201 65.5,132.5C 67.0898,132.372 68.4231,131.705 69.5,130.5C 67.1724,129.176 64.8391,127.843 62.5,126.5C 61.914,126.709 61.414,127.043 61,127.5C 60.6667,125.833 60.3333,124.167 60,122.5C 58.2927,120.963 56.7927,119.296 55.5,117.5 Z"/></g>
<g><path style="opacity:0.61" fill="#9864e2" d="M 1542.5,117.5 C 1542.63,118.376 1542.3,119.043 1541.5,119.5C 1534.94,123.482 1528.28,126.149 1521.5,127.5C 1528.28,123.946 1535.28,120.613 1542.5,117.5 Z"/></g>
<g><path style="opacity:1" fill="#9141fd" d="M 1511.5,148.5 C 1490.75,157.175 1470.08,165.842 1449.5,174.5C 1448.17,174.5 1446.83,174.5 1445.5,174.5C 1444.23,166.285 1447.56,161.119 1455.5,159C 1460,158.389 1464.5,156.889 1469,154.5C 1469.33,154.833 1469.67,155.167 1470,155.5C 1481.86,151.793 1493.02,147.293 1503.5,142C 1509.05,140.037 1514.55,137.87 1520,135.5C 1520.33,135.833 1520.67,136.167 1521,136.5C 1524.69,134.067 1528.52,131.734 1532.5,129.5C 1533.09,129.709 1533.59,130.043 1534,130.5C 1538.4,129.852 1542.57,128.519 1546.5,126.5C 1547.52,127.002 1547.69,127.668 1547,128.5C 1544.75,129.042 1542.91,130.209 1541.5,132C 1533.74,135.961 1525.91,139.795 1518,143.5C 1517.67,143.167 1517.33,142.833 1517,142.5C 1515.76,143.872 1514.26,144.872 1512.5,145.5C 1511.61,146.325 1511.28,147.325 1511.5,148.5 Z"/></g>
<g><path style="opacity:1" fill="#8f4ffa" d="M 70.5,124.5 C 78.667,127.245 86.667,130.578 94.5,134.5C 95.1067,134.376 95.44,134.043 95.5,133.5C 95.8333,133.5 96.1667,133.5 96.5,133.5C 100.148,136.291 104.148,138.791 108.5,141C 113.16,142.413 117.66,144.246 122,146.5C 122.765,146.43 123.265,146.097 123.5,145.5C 123.833,145.5 124.167,145.5 124.5,145.5C 124.369,146.376 124.702,147.043 125.5,147.5C 129.113,148.802 132.446,150.469 135.5,152.5C 133.248,151.667 131.081,151.667 129,152.5C 119.56,148.748 110.227,145.414 101,142.5C 98.7217,143.62 97.2217,142.787 96.5,140C 91.6741,136.885 86.1741,134.385 80,132.5C 76.4051,130.151 73.2385,127.485 70.5,124.5 Z"/></g>
<g><path style="opacity:0.443" fill="#9765e1" d="M 1520.5,127.5 C 1519.88,129.335 1518.54,130.502 1516.5,131C 1513.59,132.037 1510.76,133.204 1508,134.5C 1507.6,134.272 1507.43,133.938 1507.5,133.5C 1511.38,130.751 1515.71,128.751 1520.5,127.5 Z"/></g>
<g><path style="opacity:0.443" fill="#8358d3" d="M 55.5,115.5 C 69.2407,121.045 82.574,127.045 95.5,133.5C 95.44,134.043 95.1067,134.376 94.5,134.5C 86.667,130.578 78.667,127.245 70.5,124.5C 65.5902,121.974 60.5902,119.641 55.5,117.5C 55.5,117.167 55.5,116.833 55.5,116.5C 55.5,116.167 55.5,115.833 55.5,115.5 Z"/></g>
<g><path style="opacity:0.416" fill="#9662e4" d="M 1401.5,97.5 C 1392.31,132.248 1382.81,166.914 1373,201.5C 1372.5,202 1372,202.5 1371.5,203C 1365.5,203.667 1359.5,203.667 1353.5,203C 1352.98,202.439 1352.64,201.772 1352.5,201C 1358.27,181.083 1363.93,161.25 1369.5,141.5C 1370.12,141.917 1370.46,142.584 1370.5,143.5C 1366.4,156.324 1363.07,169.324 1360.5,182.5C 1358.82,186.635 1357.32,190.968 1356,195.5C 1355.33,197.167 1355.33,198.833 1356,200.5C 1360.08,201.629 1364.25,201.796 1368.5,201C 1370.06,200.682 1371.23,199.849 1372,198.5C 1381.09,165.081 1390.25,131.748 1399.5,98.5C 1399.96,97.7025 1400.62,97.3691 1401.5,97.5 Z"/></g>
<g><path style="opacity:0.333" fill="#915ce5" d="M 374.5,119.5 C 374.5,120.167 374.5,120.833 374.5,121.5C 372.012,123.056 371.012,125.389 371.5,128.5C 370.827,132.281 372.161,135.114 375.5,137C 393.544,137.82 411.544,137.653 429.5,136.5C 430.493,131.88 430.827,127.214 430.5,122.5C 429.041,122.567 427.708,122.234 426.5,121.5C 426.5,120.833 426.5,120.167 426.5,119.5C 429.238,118.965 431.072,119.965 432,122.5C 432.667,127.5 432.667,132.5 432,137.5C 431.5,138 431,138.5 430.5,139C 410.5,139.667 390.5,139.667 370.5,139C 369.358,132.916 369.191,126.749 370,120.5C 371.356,119.62 372.856,119.286 374.5,119.5 Z"/></g>
<g><path style="opacity:1" fill="#9849fa" d="M 374.5,121.5 C 391.833,121.5 409.167,121.5 426.5,121.5C 427.708,122.234 429.041,122.567 430.5,122.5C 430.827,127.214 430.493,131.88 429.5,136.5C 411.544,137.653 393.544,137.82 375.5,137C 372.161,135.114 370.827,132.281 371.5,128.5C 371.012,125.389 372.012,123.056 374.5,121.5 Z"/></g>
<g><path style="opacity:1" fill="#933bfd" d="M 381.5,122.5 C 396.182,122.167 410.848,122.501 425.5,123.5C 428.466,128.767 427.133,132.6 421.5,135C 407.537,136.532 393.537,136.866 379.5,136C 378.09,135.632 377.09,134.799 376.5,133.5C 377.788,130.966 377.788,128.466 376.5,126C 378.233,124.811 379.9,123.644 381.5,122.5 Z"/></g>
<g><path style="opacity:0.524" fill="#874beb" d="M 374.5,119.5 C 391.833,119.5 409.167,119.5 426.5,119.5C 426.5,120.167 426.5,120.833 426.5,121.5C 409.167,121.5 391.833,121.5 374.5,121.5C 374.5,120.833 374.5,120.167 374.5,119.5 Z"/></g>
<g><path style="opacity:0.22" fill="#8f61df" d="M 1443.5,175.5 C 1445.84,176.987 1447.84,176.654 1449.5,174.5C 1470.08,165.842 1490.75,157.175 1511.5,148.5C 1525.76,142.859 1539.76,136.859 1553.5,130.5C 1558.51,129.556 1563.01,127.556 1567,124.5C 1567.67,117.5 1567.67,110.5 1567,103.5C 1566.63,102.584 1566.13,101.75 1565.5,101C 1557.26,97.2013 1548.93,93.7013 1540.5,90.5C 1522.89,83.8667 1505.56,76.3667 1488.5,68C 1483.26,65.9333 1477.93,64.0999 1472.5,62.5C 1465.23,58.5403 1457.57,55.0403 1449.5,52C 1447.45,51.5099 1445.45,51.6765 1443.5,52.5C 1443.12,50.3352 1443.78,48.6685 1445.5,47.5C 1483.31,63.9421 1521.31,80.1088 1559.5,96C 1568.28,98.879 1571.61,104.879 1569.5,114C 1571.6,121.957 1568.93,127.29 1561.5,130C 1522.84,145.777 1484.34,161.943 1446,178.5C 1444.25,178.252 1443.42,177.252 1443.5,175.5 Z"/></g>
<g><path style="opacity:0.386" fill="#865dd9" d="M 96.5,133.5 C 105.911,136.741 114.911,140.741 123.5,145.5C 123.265,146.097 122.765,146.43 122,146.5C 117.66,144.246 113.16,142.413 108.5,141C 104.148,138.791 100.148,136.291 96.5,133.5 Z"/></g>
<g><path style="opacity:0.48" fill="#9966e2" d="M 1506.5,133.5 C 1505.88,135.335 1504.54,136.502 1502.5,137C 1496.75,139.623 1490.92,142.123 1485,144.5C 1484.6,144.272 1484.43,143.938 1484.5,143.5C 1491.53,139.656 1498.86,136.323 1506.5,133.5 Z"/></g>
<g><path style="opacity:0.22" fill="#7c56cd" d="M 124.5,145.5 C 129.285,146.751 133.619,148.751 137.5,151.5C 137.158,152.338 136.492,152.672 135.5,152.5C 132.446,150.469 129.113,148.802 125.5,147.5C 124.702,147.043 124.369,146.376 124.5,145.5 Z"/></g>
<g><path style="opacity:0.667" fill="#9662e1" d="M 1483.5,143.5 C 1482.88,145.335 1481.54,146.502 1479.5,147C 1467.9,151.468 1456.57,156.468 1445.5,162C 1444.88,164.607 1444.21,167.107 1443.5,169.5C 1441.8,165.927 1442.47,162.761 1445.5,160C 1457.98,154.008 1470.65,148.508 1483.5,143.5 Z"/></g>
<g><path style="opacity:0.333" fill="#8855da" d="M 33.5,124.5 C 35.5168,125.529 37.5168,126.529 39.5,127.5C 66.1925,138.848 92.8592,150.182 119.5,161.5C 129.517,165.563 139.517,169.73 149.5,174C 152.146,174.497 154.813,174.664 157.5,174.5C 156.9,175.9 155.9,176.9 154.5,177.5C 114.136,161.483 74.1362,144.65 34.5,127C 33.7476,126.329 33.4142,125.496 33.5,124.5 Z"/></g>
<g><path style="opacity:0.433" fill="#8863db" d="M 138.5,151.5 C 145.324,153.829 151.824,156.829 158,160.5C 159.57,166.053 159.903,171.719 159,177.5C 157.384,178.801 155.884,178.801 154.5,177.5C 155.9,176.9 156.9,175.9 157.5,174.5C 157.666,170.486 157.499,166.486 157,162.5C 151.641,158.738 145.808,155.904 139.5,154C 138.748,153.329 138.414,152.496 138.5,151.5 Z"/></g>
<g><path style="opacity:0.443" fill="#949494" d="M 760.5,174.5 C 759.833,174.5 759.167,174.5 758.5,174.5C 759.167,171.833 759.833,171.833 760.5,174.5 Z"/></g>
</svg>
