<?xml version="1.0" encoding="UTF-8"?>
<!DOCTYPE svg PUBLIC "-//W3C//DTD SVG 1.1//EN" "http://www.w3.org/Graphics/SVG/1.1/DTD/svg11.dtd">
<svg xmlns="http://www.w3.org/2000/svg" version="1.1" width="142px" height="61px" style="shape-rendering:geometricPrecision; text-rendering:geometricPrecision; image-rendering:optimizeQuality; fill-rule:evenodd; clip-rule:evenodd" xmlns:xlink="http://www.w3.org/1999/xlink">
<g><path style="opacity:0.004" fill="#000000" d="M 53.5,-0.5 C 53.8333,-0.5 54.1667,-0.5 54.5,-0.5C 54.3147,0.170143 53.9813,0.170143 53.5,-0.5 Z"/></g>
<g><path style="opacity:0.004" fill="#000000" d="M 112.5,1.5 C 113.833,2.16667 113.833,2.16667 112.5,1.5 Z"/></g>
<g><path style="opacity:0.004" fill="#000000" d="M 133.5,1.5 C 134.833,2.16667 134.833,2.16667 133.5,1.5 Z"/></g>
<g><path style="opacity:0.004" fill="#000000" d="M 4.5,5.5 C 5.83333,6.16667 5.83333,6.16667 4.5,5.5 Z"/></g>
<g><path style="opacity:0.004" fill="#000000" d="M 120.5,5.5 C 121.833,6.16667 121.833,6.16667 120.5,5.5 Z"/></g>
<g><path style="opacity:1" fill="#f0f0ef" d="M 75.5,49.5 C 73.3077,45.8051 71.8077,41.8051 71,37.5C 64.7174,38.154 58.5507,38.154 52.5,37.5C 50.2372,41.6243 48.5706,45.9577 47.5,50.5C 44.8127,50.6641 42.146,50.4974 39.5,50C 45.8945,34.5845 51.8945,19.4178 57.5,4.5C 60.4475,4.22288 63.2809,4.55621 66,5.5C 71.9414,20.4963 77.7747,35.4963 83.5,50.5C 80.7212,50.7214 78.0545,50.388 75.5,49.5 Z M 61.5,12.5 C 64.0753,18.6681 66.4086,25.0015 68.5,31.5C 63.8215,31.6658 59.1548,31.4992 54.5,31C 57.13,24.9431 59.4633,18.7765 61.5,12.5 Z"/></g>
<g><path style="opacity:0.004" fill="#00ff00" d="M 27.5,8.5 C 28.8333,9.16667 28.8333,9.16667 27.5,8.5 Z"/></g>
<g><path style="opacity:0.004" fill="#000000" d="M 53.5,8.5 C 54.8333,9.16667 54.8333,9.16667 53.5,8.5 Z"/></g>
<g><path style="opacity:0.004" fill="#000000" d="M 83.5,10.5 C 84.8333,11.1667 84.8333,11.1667 83.5,10.5 Z"/></g>
<g><path style="opacity:0.004" fill="#000000" d="M 45.5,11.5 C 46.8333,12.1667 46.8333,12.1667 45.5,11.5 Z"/></g>
<g><path style="opacity:0.004" fill="#000000" d="M 86.5,11.5 C 87.8333,12.1667 87.8333,12.1667 86.5,11.5 Z"/></g>
<g><path style="opacity:0.004" fill="#000000" d="M 92.5,11.5 C 93.8333,12.1667 93.8333,12.1667 92.5,11.5 Z"/></g>
<g><path style="opacity:0.004" fill="#000000" d="M 29.5,13.5 C 28.8333,12.1667 28.8333,12.1667 29.5,13.5 Z"/></g>
<g><path style="opacity:0.004" fill="#000000" d="M 139.5,12.5 C 140.833,13.1667 140.833,13.1667 139.5,12.5 Z"/></g>
<g><path style="opacity:0.004" fill="#000000" d="M 119.5,13.5 C 120.833,14.1667 120.833,14.1667 119.5,13.5 Z"/></g>
<g><path style="opacity:0.004" fill="#000000" d="M 9.5,15.5 C 10.8333,16.1667 10.8333,16.1667 9.5,15.5 Z"/></g>
<g><path style="opacity:0.004" fill="#000000" d="M 41.5,15.5 C 42.8333,16.1667 42.8333,16.1667 41.5,15.5 Z"/></g>
<g><path style="opacity:0.004" fill="#000100" d="M 77.5,17.5 C 78.8333,18.1667 78.8333,18.1667 77.5,17.5 Z"/></g>
<g><path style="opacity:0.004" fill="#000000" d="M 101.5,17.5 C 102.833,18.1667 102.833,18.1667 101.5,17.5 Z"/></g>
<g><path style="opacity:0.004" fill="#000000" d="M 37.5,18.5 C 38.8333,19.1667 38.8333,19.1667 37.5,18.5 Z"/></g>
<g><path style="opacity:0.004" fill="#000000" d="M 138.5,18.5 C 139.833,19.1667 139.833,19.1667 138.5,18.5 Z"/></g>
<g><path style="opacity:0.004" fill="#000000" d="M 33.5,20.5 C 34.8333,21.1667 34.8333,21.1667 33.5,20.5 Z"/></g>
<g><path style="opacity:1" fill="#7a4ede" d="M 107.5,11.5 C 117.927,15.5449 128.26,19.8783 138.5,24.5C 139.484,27.4281 139.817,30.4281 139.5,33.5C 128.817,37.3401 118.317,41.6735 108,46.5C 105.849,43.7838 106.016,41.2838 108.5,39C 116.249,35.8612 123.916,32.5279 131.5,29C 128.667,27.2188 125.667,25.7188 122.5,24.5C 121.914,24.7093 121.414,25.0426 121,25.5C 117.245,22.5179 113.078,20.1845 108.5,18.5C 106.553,16.3178 106.219,13.9845 107.5,11.5 Z"/></g>
<g><path style="opacity:1" fill="#8053e3" d="M 97.5,2.5 C 99.604,2.2011 101.604,2.53443 103.5,3.5C 99.2377,19.561 94.9044,35.2276 90.5,50.5C 88.604,51.4656 86.604,51.7989 84.5,51.5C 88.6732,35.1416 93.0065,18.8083 97.5,2.5 Z"/></g>
<g><path style="opacity:0.004" fill="#000000" d="M 74.5,22.5 C 75.8333,23.1667 75.8333,23.1667 74.5,22.5 Z"/></g>
<g><path style="opacity:1" fill="#8050e9" d="M 11.5,29.5 C 11.9371,31.0744 12.9371,32.2411 14.5,33C 8.98403,34.9246 5.65069,33.0913 4.5,27.5C 7.01545,25.3232 9.68211,23.3232 12.5,21.5C 18.0459,18.5602 23.7126,15.8935 29.5,13.5C 31.258,13.1231 32.9246,12.4565 34.5,11.5C 35.8333,13.8333 35.8333,16.1667 34.5,18.5C 26.5898,21.9576 18.9231,25.6243 11.5,29.5 Z"/></g>
<g><path style="opacity:0.004" fill="#000000" d="M 85.5,23.5 C 86.8333,24.1667 86.8333,24.1667 85.5,23.5 Z"/></g>
<g><path style="opacity:0.004" fill="#000000" d="M 82.5,24.5 C 83.8333,25.1667 83.8333,25.1667 82.5,24.5 Z"/></g>
<g><path style="opacity:0.004" fill="#000000" d="M 105.5,26.5 C 106.833,27.1667 106.833,27.1667 105.5,26.5 Z"/></g>
<g><path style="opacity:0.004" fill="#000000" d="M 23.5,28.5 C 24.8333,29.1667 24.8333,29.1667 23.5,28.5 Z"/></g>
<g><path style="opacity:0.004" fill="#000000" d="M 37.5,30.5 C 38.8333,31.1667 38.8333,31.1667 37.5,30.5 Z"/></g>
<g><path style="opacity:0.004" fill="#000000" d="M 119.5,30.5 C 120.833,31.1667 120.833,31.1667 119.5,30.5 Z"/></g>
<g><path style="opacity:0.004" fill="#000000" d="M 85.5,32.5 C 86.8333,33.1667 86.8333,33.1667 85.5,32.5 Z"/></g>
<g><path style="opacity:1" fill="#744ed0" d="M 12.5,21.5 C 9.68211,23.3232 7.01545,25.3232 4.5,27.5C 5.65069,33.0913 8.98403,34.9246 14.5,33C 12.9371,32.2411 11.9371,31.0744 11.5,29.5C 19.1831,32.5628 26.8497,35.7295 34.5,39C 35.4231,41.0408 35.7564,43.2075 35.5,45.5C 31.4379,44.3682 27.4379,43.0349 23.5,41.5C 23.9169,40.8761 24.5836,40.5427 25.5,40.5C 28.4222,41.7976 31.4222,42.7976 34.5,43.5C 34.719,42.325 34.3857,41.325 33.5,40.5C 29.3814,38.87 25.3814,37.0367 21.5,35C 15.5219,34.2288 15.1886,34.8955 20.5,37C 21.8228,37.8159 22.4894,38.9826 22.5,40.5C 16.2318,37.9664 9.89848,35.6331 3.5,33.5C 3.18259,30.4281 3.51592,27.4281 4.5,24.5C 7.03536,23.1 9.70203,22.1 12.5,21.5 Z"/></g>
<g><path style="opacity:0.004" fill="#000000" d="M 2.5,38.5 C 3.83333,39.1667 3.83333,39.1667 2.5,38.5 Z"/></g>
<g><path style="opacity:1" fill="#8750f7" d="M 23.5,41.5 C 22.8333,41.5 22.5,41.1667 22.5,40.5C 22.4894,38.9826 21.8228,37.8159 20.5,37C 15.1886,34.8955 15.5219,34.2288 21.5,35C 25.3814,37.0367 29.3814,38.87 33.5,40.5C 34.3857,41.325 34.719,42.325 34.5,43.5C 31.4222,42.7976 28.4222,41.7976 25.5,40.5C 24.5836,40.5427 23.9169,40.8761 23.5,41.5 Z"/></g>
<g><path style="opacity:0.004" fill="#000000" d="M 66.5,40.5 C 67.8333,41.1667 67.8333,41.1667 66.5,40.5 Z"/></g>
<g><path style="opacity:0.004" fill="#000000" d="M 100.5,44.5 C 101.833,45.1667 101.833,45.1667 100.5,44.5 Z"/></g>
<g><path style="opacity:0.004" fill="#000000" d="M 59.5,45.5 C 60.8333,46.1667 60.8333,46.1667 59.5,45.5 Z"/></g>
<g><path style="opacity:0.004" fill="#000000" d="M 7.5,46.5 C 8.83333,47.1667 8.83333,47.1667 7.5,46.5 Z"/></g>
<g><path style="opacity:0.004" fill="#0000ff" d="M 100.5,47.5 C 101.833,48.1667 101.833,48.1667 100.5,47.5 Z"/></g>
<g><path style="opacity:0.004" fill="#000000" d="M 121.5,47.5 C 122.833,48.1667 122.833,48.1667 121.5,47.5 Z"/></g>
<g><path style="opacity:0.004" fill="#000000" d="M 7.5,48.5 C 8.83333,49.1667 8.83333,49.1667 7.5,48.5 Z"/></g>
<g><path style="opacity:0.004" fill="#000000" d="M 4.5,49.5 C 5.83333,50.1667 5.83333,50.1667 4.5,49.5 Z"/></g>
<g><path style="opacity:0.004" fill="#000000" d="M 35.5,49.5 C 36.8333,50.1667 36.8333,50.1667 35.5,49.5 Z"/></g>
<g><path style="opacity:0.004" fill="#000000" d="M 75.5,49.5 C 74.8333,50.1667 74.8333,50.1667 75.5,49.5 Z"/></g>
<g><path style="opacity:0.004" fill="#000000" d="M 135.5,49.5 C 136.833,50.1667 136.833,50.1667 135.5,49.5 Z"/></g>
<g><path style="opacity:0.004" fill="#000000" d="M 6.5,50.5 C 7.83333,51.1667 7.83333,51.1667 6.5,50.5 Z"/></g>
<g><path style="opacity:0.004" fill="#000000" d="M 99.5,50.5 C 100.833,51.1667 100.833,51.1667 99.5,50.5 Z"/></g>
<g><path style="opacity:0.004" fill="#000000" d="M 26.5,51.5 C 27.8333,52.1667 27.8333,52.1667 26.5,51.5 Z"/></g>
<g><path style="opacity:0.004" fill="#000000" d="M 123.5,53.5 C 124.833,54.1667 124.833,54.1667 123.5,53.5 Z"/></g>
<g><path style="opacity:0.004" fill="#000000" d="M 46.5,54.5 C 47.8333,55.1667 47.8333,55.1667 46.5,54.5 Z"/></g>
<g><path style="opacity:0.004" fill="#000000" d="M 64.5,54.5 C 65.8333,55.1667 65.8333,55.1667 64.5,54.5 Z"/></g>
<g><path style="opacity:0.004" fill="#000000" d="M 70.5,54.5 C 71.8333,55.1667 71.8333,55.1667 70.5,54.5 Z"/></g>
<g><path style="opacity:0.004" fill="#000000" d="M 88.5,55.5 C 89.8333,56.1667 89.8333,56.1667 88.5,55.5 Z"/></g>
<g><path style="opacity:0.004" fill="#000000" d="M 128.5,55.5 C 129.833,56.1667 129.833,56.1667 128.5,55.5 Z"/></g>
<g><path style="opacity:0.004" fill="#000000" d="M 132.5,56.5 C 133.833,57.1667 133.833,57.1667 132.5,56.5 Z"/></g>
<g><path style="opacity:0.004" fill="#000000" d="M 141.5,56.5 C 141.5,56.8333 141.5,57.1667 141.5,57.5C 140.83,57.0187 140.83,56.6853 141.5,56.5 Z"/></g>
<g><path style="opacity:0.004" fill="#000000" d="M 3.5,57.5 C 4.83333,58.1667 4.83333,58.1667 3.5,57.5 Z"/></g>
<g><path style="opacity:0.004" fill="#000000" d="M 103.5,57.5 C 104.833,58.1667 104.833,58.1667 103.5,57.5 Z"/></g>
<g><path style="opacity:0.004" fill="#000000" d="M 108.5,58.5 C 109.833,59.1667 109.833,59.1667 108.5,58.5 Z"/></g>
<g><path style="opacity:0.004" fill="#000000" d="M 13.5,60.5 C 12.8333,59.1667 12.8333,59.1667 13.5,60.5 Z"/></g>
</svg>
