<?xml version="1.0" standalone="no"?>
<!DOCTYPE svg PUBLIC "-//W3C//DTD SVG 20010904//EN"
 "http://www.w3.org/TR/2001/REC-SVG-20010904/DTD/svg10.dtd">
<svg version="1.0" xmlns="http://www.w3.org/2000/svg"
 width="1601.000000pt" height="270.000000pt" viewBox="0 0 1601.000000 270.000000"
 preserveAspectRatio="xMidYMid meet">

<g transform="translate(0.000000,270.000000) scale(0.100000,-0.100000)"
fill="#000000" stroke="none">
<path d="M14057 2523 c-9 -21 -24 -65 -33 -98 -18 -67 -65 -240 -88 -325 -8
-30 -24 -91 -36 -135 -21 -76 -32 -120 -64 -237 -8 -29 -27 -98 -42 -153 -15
-55 -35 -129 -44 -165 -38 -139 -84 -310 -110 -410 -16 -58 -38 -139 -50 -180
-12 -41 -25 -90 -27 -108 l-5 -33 78 3 77 3 22 70 c12 39 29 99 39 135 9 36
23 88 31 115 13 48 33 124 75 280 11 41 29 109 40 150 30 114 60 224 76 285 9
30 28 102 44 160 15 58 35 130 43 160 9 30 25 90 36 133 12 42 30 112 42 155
11 42 27 102 36 132 27 97 28 95 -53 98 l-71 3 -16 -38z"/>
<path d="M14456 2154 c-3 -26 -6 -64 -6 -86 0 -38 2 -40 58 -65 60 -27 168
-72 362 -153 63 -26 135 -56 160 -67 85 -39 168 -73 174 -73 3 0 38 -15 78
-33 40 -19 99 -44 131 -57 32 -12 62 -30 67 -40 20 -38 1 -57 -113 -110 -144
-67 -121 -56 -492 -215 -60 -26 -123 -53 -140 -60 -16 -7 -53 -22 -80 -33 -67
-26 -174 -78 -192 -94 -11 -9 -13 -25 -8 -72 4 -34 8 -62 10 -64 1 -1 60 23
131 54 137 60 542 231 634 268 30 13 73 31 95 40 22 10 49 22 60 26 11 4 36
15 55 23 19 9 78 34 129 56 52 23 98 47 103 54 12 18 10 185 -3 208 -5 11 -40
34 -77 51 -133 61 -157 72 -177 78 -31 11 -64 25 -137 59 -37 17 -72 31 -78
31 -5 0 -18 4 -28 9 -54 28 -387 171 -397 171 -3 0 -28 11 -57 24 -29 13 -93
40 -143 61 -49 21 -95 42 -101 47 -8 5 -13 -6 -18 -38z"/>
<path d="M1495 2161 c-33 -16 -95 -45 -137 -65 -42 -20 -82 -36 -88 -36 -6 0
-32 -11 -58 -24 -26 -13 -137 -60 -247 -106 -110 -45 -208 -85 -217 -90 -17
-10 -62 -29 -233 -99 -145 -60 -154 -65 -158 -76 -2 -5 -1 -59 2 -119 5 -82
10 -111 21 -117 28 -15 126 -58 181 -79 30 -12 68 -28 84 -35 66 -30 303 -129
360 -150 33 -13 89 -36 125 -53 115 -52 431 -182 444 -182 3 0 6 29 6 63 0 78
-11 92 -100 131 -36 16 -89 39 -118 52 -29 13 -56 24 -61 24 -4 0 -35 14 -69
30 -34 17 -66 30 -71 30 -5 0 -36 13 -69 30 -34 17 -65 30 -71 30 -6 0 -26 9
-46 20 -20 11 -42 20 -50 20 -8 0 -15 5 -15 10 0 6 -8 10 -18 10 -10 0 -22 4
-27 8 -6 5 -26 15 -45 22 -19 7 -57 23 -85 36 -27 12 -77 34 -110 49 -71 30
-92 55 -73 85 12 19 146 82 408 190 296 123 548 233 583 256 37 24 37 24 37
94 0 50 -4 70 -12 69 -7 0 -40 -13 -73 -28z"/>
<path d="M3720 1400 l0 -80 293 2 292 3 3 54 c2 30 1 65 -3 78 l-5 23 -290 0
-290 0 0 -80z"/>
</g>
</svg>
